<?xml version="1.0" encoding="UTF-8" standalone="no"?>
<!-- Created with Inkscape (http://www.inkscape.org/) -->

<svg
   width="16"
   height="16"
   viewBox="0 0 4.2333333 4.2333333"
   version="1.1"
   id="svg1"
   xml:space="preserve"
   xmlns="http://www.w3.org/2000/svg"
   xmlns:svg="http://www.w3.org/2000/svg"><defs
     id="defs1" /><g
     id="layer1"><path
       d="M 0.23083903,3.4645429 V 0.49641536 H 0.72080278 V 1.6646347 H 1.6845331 V 0.49641536 H 2.1765215 V 3.4645429 H 1.6845331 V 2.1667463 H 0.72080278 v 1.2977966 z"
       id="text1"
       style="font-weight:bold;font-stretch:condensed;font-size:4.14647px;font-family:Arial;-inkscape-font-specification:'Arial Bold Condensed';fill:#fc7f7f;stroke-width:0.197293;fill-opacity:1"
       aria-label="H"
       transform="scale(0.98892846,1.0111955)" /><path
       style="fill:#fc7f7f;fill-opacity:1"
       d="M 3.4074653,0.4625 2.9351563,0.30099827 2.5878906,0.71289062 2.6743213,1.0186155 3.131467,0.67725694 3.6424045,0.78732639 3.9618056,0.31059028 Z"
       id="path6" /><path
       style="fill:#fc7f7f;fill-opacity:1"
       d="M 3.0430617,1.2895492 2.5605469,1.5332031 2.6201205,1.9542841 3.0765191,1.7785156 3.4980469,2.0292969 4,1.6875 3.4943142,1.6389323 Z"
       id="path7" /><path
       style="fill:#fc7f7f;fill-opacity:1"
       d="M 3.0741753,2.2465491 2.6074219,2.479188 2.5913743,2.8678599 3.1386719,2.6901255 3.5143663,2.9428599 4.0584924,2.5722155 3.5259114,2.5181204 Z"
       id="path8" /><path
       style="fill:#fc7f7f;fill-opacity:1"
       d="M 3.3257378,3.1675347 2.7089844,3.2558594 2.477728,3.724731 3.0666667,3.5052517 3.3680989,3.9001302 3.9666667,3.8411458 3.621658,3.5494358 Z"
       id="path11" /></g></svg>
